<?xml version="1.0" encoding="UTF-8"?><svg id="a" xmlns="http://www.w3.org/2000/svg" xmlns:xlink="http://www.w3.org/1999/xlink" viewBox="0 0 221.3 34.57"><defs><style>.c{fill:#943783;}.d{fill:#5769aa;}.e{fill:#725399;}.f{fill:#189dd3;}.g{fill:#685b9f;}.h{fill:#2393cb;}.i{fill:none;stroke:url(#b);stroke-miterlimit:10;}.j{fill:#3b7fbc;}</style><linearGradient id="b" x1="0" y1="17.28" x2="221.3" y2="17.28" gradientTransform="matrix(1, 0, 0, 1, 0, 0)" gradientUnits="userSpaceOnUse"><stop offset="0" stop-color="#159fd5"/><stop offset=".16" stop-color="#2d8bc5"/><stop offset=".51" stop-color="#6a599e"/><stop offset="1" stop-color="#cc0a60"/></linearGradient></defs><rect class="i" x=".5" y=".5" width="220.3" height="33.57" rx="14.33" ry="14.33"/><path class="f" d="M21.15,26.51h.2c.03-.11-.11-1.37-.19-1.77h-.57c-.08,.58-.16,1.17-.2,1.77h.22s0,.07,0,.1c0,.64,0,1.27,0,1.91,0,.03,0,.05,.01,.08,.08,.23,.13,.47,.16,.72,.01,.15,.02,.3,.03,.45-.07,.02-4.71,.03-4.88,0,0-.09,0-.18,0-.27,0-.14,.02-.28,.04-.41,.04-.3,.12-.6,.26-.88,.02-.04,.03-.08,.03-.13,0-.49,0-.98,0-1.47v-.1h.18c0-.1,0-.19-.01-.28-.03-.41-.11-.81-.21-1.21-.17-.68-.35-1.36-.52-2.05-.08-.32-.14-.63-.16-.96-.02-.2-.02-.4,0-.6,0-.06,.01-.11,.02-.18-.05,.01-.09,.02-.13,.03-.18,.04-.37,.06-.55,.07-.16,0-.32,0-.48,0-.32-.02-.64-.04-.95-.16-.17-.07-.33-.15-.45-.3-.13-.16-.18-.34-.19-.54,0-.12,0-.24,.01-.36,.01-.11,.06-.21,.12-.3,.12-.2,.16-.41,.17-.63,0-.39,.06-.78,.13-1.16,.13-.7,.32-1.37,.55-2.04,.18-.51,.38-1.02,.61-1.51,.2-.43,.43-.84,.72-1.21,.42-.56,.93-1.01,1.55-1.34,.15-.08,.31-.15,.47-.22,.06-.03,.09-.06,.11-.12,.04-.11,.09-.21,.14-.31,.03-.05,.03-.09,0-.15-.22-.37-.36-.77-.43-1.2-.03-.21-.04-.41-.03-.62,.02-.24,.07-.48,.14-.71,.11-.4,.25-.78,.41-1.16l.02-.04s-.03-.02-.05-.03c-.36-.18-.6-.46-.76-.83-.12-.27-.17-.56-.15-.86,.04-.36,.17-.67,.42-.93,.22-.23,.49-.39,.81-.45,.53-.1,1,.03,1.4,.41,.03,.03,.07,.07,.1,.1,.03,.03,.05,.07,.09,.11,1.04-.41,2.08-.41,3.11,0,.06-.07,.12-.13,.18-.19,.26-.26,.58-.41,.95-.44,.87-.07,1.55,.51,1.68,1.28,.06,.36,0,.7-.15,1.02-.13,.27-.31,.5-.56,.68-.07,.05-.15,.09-.23,.14,.05,.12,.09,.24,.14,.36,.16,.42,.3,.86,.38,1.3,.06,.32,.06,.64,0,.95-.07,.41-.21,.8-.43,1.15-.02,.03-.02,.06,0,.09,.07,.12,.14,.24,.17,.38,0,.04,.04,.05,.07,.06,.12,.05,.24,.1,.35,.16,.46,.23,.87,.52,1.23,.88,.41,.41,.74,.87,1,1.38,.3,.57,.54,1.17,.76,1.78,.17,.48,.32,.96,.44,1.45,.11,.45,.2,.9,.24,1.35,.01,.15,.03,.29,.03,.44,0,.26,.06,.51,.19,.74,.08,.13,.11,.26,.11,.41,0,.13,0,.25-.03,.38-.06,.28-.23,.47-.49,.6-.23,.11-.49,.17-.74,.19-.21,.02-.41,.03-.62,.03-.28,0-.55-.02-.82-.1-.01,0-.03,0-.05,0,0,.04,0,.07,0,.1,.03,.2,.02,.4,0,.61-.02,.32-.07,.63-.15,.94-.17,.68-.35,1.36-.52,2.04-.09,.35-.16,.7-.2,1.05-.01,.11-.02,.21-.03,.32,0,.06,0,.12-.01,.2h.18s0,.07,0,.1c0,.49,0,.98,0,1.47,0,.04,0,.09,.03,.13,.13,.27,.21,.56,.25,.85,.03,.21,.05,.42,.05,.63,0,.02,0,.05,0,.07-.06,.02-4.72,.02-4.88,0,0-.04,0-.08,0-.13,.02-.3,.05-.6,.13-.89v-.02c.07-.14,.07-.29,.07-.44,0-.56,0-1.12,0-1.69v-.11Z"/><path class="h" d="M43.59,26.51h.2c.03-.11-.11-1.37-.19-1.77h-.57c-.08,.58-.16,1.17-.2,1.77h.22s0,.07,0,.1c0,.64,0,1.27,0,1.91,0,.03,0,.05,.01,.08,.08,.23,.13,.47,.16,.72,.01,.15,.02,.3,.03,.45-.07,.02-4.71,.03-4.88,0,0-.09,0-.18,0-.27,0-.14,.02-.28,.04-.41,.04-.3,.12-.6,.26-.88,.02-.04,.03-.08,.03-.13,0-.49,0-.98,0-1.47v-.1h.18c0-.1,0-.19-.01-.28-.03-.41-.11-.81-.21-1.21-.17-.68-.35-1.36-.52-2.05-.08-.32-.14-.63-.16-.96-.02-.2-.02-.4,0-.6,0-.06,.01-.11,.02-.18-.05,.01-.09,.02-.13,.03-.18,.04-.37,.06-.55,.07-.16,0-.32,0-.48,0-.32-.02-.64-.04-.95-.16-.17-.07-.33-.15-.45-.3-.13-.16-.18-.34-.19-.54,0-.12,0-.24,.01-.36,.01-.11,.06-.21,.12-.3,.12-.2,.16-.41,.17-.63,0-.39,.06-.78,.13-1.16,.13-.7,.32-1.37,.55-2.04,.18-.51,.38-1.02,.61-1.51,.2-.43,.43-.84,.72-1.21,.42-.56,.93-1.01,1.55-1.34,.15-.08,.31-.15,.47-.22,.06-.03,.09-.06,.11-.12,.04-.11,.09-.21,.14-.31,.03-.05,.03-.09,0-.15-.22-.37-.36-.77-.43-1.2-.03-.21-.04-.41-.03-.62,.02-.24,.07-.48,.14-.71,.11-.4,.25-.78,.41-1.16l.02-.04s-.03-.02-.05-.03c-.36-.18-.6-.46-.76-.83-.12-.27-.17-.56-.15-.86,.04-.36,.17-.67,.42-.93,.22-.23,.49-.39,.81-.45,.53-.1,1,.03,1.4,.41,.03,.03,.07,.07,.1,.1,.03,.03,.05,.07,.09,.11,1.04-.41,2.08-.41,3.11,0,.06-.07,.12-.13,.18-.19,.26-.26,.58-.41,.95-.44,.87-.07,1.55,.51,1.68,1.28,.06,.36,0,.7-.15,1.02-.13,.27-.31,.5-.56,.68-.07,.05-.15,.09-.23,.14,.05,.12,.09,.24,.14,.36,.16,.42,.3,.86,.38,1.3,.06,.32,.06,.64,0,.95-.07,.41-.21,.8-.43,1.15-.02,.03-.02,.06,0,.09,.07,.12,.14,.24,.17,.38,0,.04,.04,.05,.07,.06,.12,.05,.24,.1,.35,.16,.46,.23,.87,.52,1.23,.88,.41,.41,.74,.87,1,1.38,.3,.57,.54,1.17,.76,1.78,.17,.48,.32,.96,.44,1.45,.11,.45,.2,.9,.24,1.35,.01,.15,.03,.29,.03,.44,0,.26,.06,.51,.19,.74,.08,.13,.11,.26,.11,.41,0,.13,0,.25-.03,.38-.06,.28-.23,.47-.49,.6-.23,.11-.49,.17-.74,.19-.21,.02-.41,.03-.62,.03-.28,0-.55-.02-.82-.1-.01,0-.03,0-.05,0,0,.04,0,.07,0,.1,.03,.2,.02,.4,0,.61-.02,.32-.07,.63-.15,.94-.17,.68-.35,1.36-.52,2.04-.09,.35-.16,.7-.2,1.05-.01,.11-.02,.21-.03,.32,0,.06,0,.12-.01,.2h.18s0,.07,0,.1c0,.49,0,.98,0,1.47,0,.04,0,.09,.03,.13,.13,.27,.21,.56,.25,.85,.03,.21,.05,.42,.05,.63,0,.02,0,.05,0,.07-.06,.02-4.72,.02-4.88,0,0-.04,0-.08,0-.13,.02-.3,.05-.6,.13-.89v-.02c.07-.14,.07-.29,.07-.44,0-.56,0-1.12,0-1.69v-.11Z"/><path class="j" d="M65.74,26.51h.2c.03-.11-.11-1.37-.19-1.77h-.57c-.08,.58-.16,1.17-.2,1.77h.22s0,.07,0,.1c0,.64,0,1.27,0,1.91,0,.03,0,.05,.01,.08,.08,.23,.13,.47,.16,.72,.01,.15,.02,.3,.03,.45-.07,.02-4.71,.03-4.88,0,0-.09,0-.18,0-.27,0-.14,.02-.28,.04-.41,.04-.3,.12-.6,.26-.88,.02-.04,.03-.08,.03-.13,0-.49,0-.98,0-1.47v-.1h.18c0-.1,0-.19-.01-.28-.03-.41-.11-.81-.21-1.21-.17-.68-.35-1.36-.52-2.05-.08-.32-.14-.63-.16-.96-.02-.2-.02-.4,0-.6,0-.06,.01-.11,.02-.18-.05,.01-.09,.02-.13,.03-.18,.04-.37,.06-.55,.07-.16,0-.32,0-.48,0-.32-.02-.64-.04-.95-.16-.17-.07-.33-.15-.45-.3-.13-.16-.18-.34-.19-.54,0-.12,0-.24,.01-.36,.01-.11,.06-.21,.12-.3,.12-.2,.16-.41,.17-.63,0-.39,.06-.78,.13-1.16,.13-.7,.32-1.37,.55-2.04,.18-.51,.38-1.02,.61-1.51,.2-.43,.43-.84,.72-1.21,.42-.56,.93-1.01,1.55-1.34,.15-.08,.31-.15,.47-.22,.06-.03,.09-.06,.11-.12,.04-.11,.09-.21,.14-.31,.03-.05,.03-.09,0-.15-.22-.37-.36-.77-.43-1.2-.03-.21-.04-.41-.03-.62,.02-.24,.07-.48,.14-.71,.11-.4,.25-.78,.41-1.16l.02-.04s-.03-.02-.05-.03c-.36-.18-.6-.46-.76-.83-.12-.27-.17-.56-.15-.86,.04-.36,.17-.67,.42-.93,.22-.23,.49-.39,.81-.45,.53-.1,1,.03,1.4,.41,.03,.03,.07,.07,.1,.1,.03,.03,.05,.07,.09,.11,1.04-.41,2.08-.41,3.11,0,.06-.07,.12-.13,.18-.19,.26-.26,.58-.41,.95-.44,.87-.07,1.55,.51,1.68,1.28,.06,.36,0,.7-.15,1.02-.13,.27-.31,.5-.56,.68-.07,.05-.15,.09-.23,.14,.05,.12,.09,.24,.14,.36,.16,.42,.3,.86,.38,1.3,.06,.32,.06,.64,0,.95-.07,.41-.21,.8-.43,1.15-.02,.03-.02,.06,0,.09,.07,.12,.14,.24,.17,.38,0,.04,.04,.05,.07,.06,.12,.05,.24,.1,.35,.16,.46,.23,.87,.52,1.23,.88,.41,.41,.74,.87,1,1.38,.3,.57,.54,1.17,.76,1.78,.17,.48,.32,.96,.44,1.45,.11,.45,.2,.9,.24,1.35,.01,.15,.03,.29,.03,.44,0,.26,.06,.51,.19,.74,.08,.13,.11,.26,.11,.41,0,.13,0,.25-.03,.38-.06,.28-.23,.47-.49,.6-.23,.11-.49,.17-.74,.19-.21,.02-.41,.03-.62,.03-.28,0-.55-.02-.82-.1-.01,0-.03,0-.05,0,0,.04,0,.07,0,.1,.03,.2,.02,.4,0,.61-.02,.32-.07,.63-.15,.94-.17,.68-.35,1.36-.52,2.04-.09,.35-.16,.7-.2,1.05-.01,.11-.02,.21-.03,.32,0,.06,0,.12-.01,.2h.18s0,.07,0,.1c0,.49,0,.98,0,1.47,0,.04,0,.09,.03,.13,.13,.27,.21,.56,.25,.85,.03,.21,.05,.42,.05,.63,0,.02,0,.05,0,.07-.06,.02-4.72,.02-4.88,0,0-.04,0-.08,0-.13,.02-.3,.05-.6,.13-.89v-.02c.07-.14,.07-.29,.07-.44,0-.56,0-1.12,0-1.69v-.11Z"/><path class="d" d="M88.19,26.51h.2c.03-.11-.11-1.37-.19-1.77h-.57c-.08,.58-.16,1.17-.2,1.77h.22s0,.07,0,.1c0,.64,0,1.27,0,1.91,0,.03,0,.05,.01,.08,.08,.23,.13,.47,.16,.72,.01,.15,.02,.3,.03,.45-.07,.02-4.71,.03-4.88,0,0-.09,0-.18,0-.27,0-.14,.02-.28,.04-.41,.04-.3,.12-.6,.26-.88,.02-.04,.03-.08,.03-.13,0-.49,0-.98,0-1.47v-.1h.18c0-.1,0-.19-.01-.28-.03-.41-.11-.81-.21-1.21-.17-.68-.35-1.36-.52-2.05-.08-.32-.14-.63-.16-.96-.02-.2-.02-.4,0-.6,0-.06,.01-.11,.02-.18-.05,.01-.09,.02-.13,.03-.18,.04-.37,.06-.55,.07-.16,0-.32,0-.48,0-.32-.02-.64-.04-.95-.16-.17-.07-.33-.15-.45-.3-.13-.16-.18-.34-.19-.54,0-.12,0-.24,.01-.36,.01-.11,.06-.21,.12-.3,.12-.2,.16-.41,.17-.63,0-.39,.06-.78,.13-1.16,.13-.7,.32-1.37,.55-2.04,.18-.51,.38-1.02,.61-1.51,.2-.43,.43-.84,.72-1.21,.42-.56,.93-1.01,1.55-1.34,.15-.08,.31-.15,.47-.22,.06-.03,.09-.06,.11-.12,.04-.11,.09-.21,.14-.31,.03-.05,.03-.09,0-.15-.22-.37-.36-.77-.43-1.2-.03-.21-.04-.41-.03-.62,.02-.24,.07-.48,.14-.71,.11-.4,.25-.78,.41-1.16l.02-.04s-.03-.02-.05-.03c-.36-.18-.6-.46-.76-.83-.12-.27-.17-.56-.15-.86,.04-.36,.17-.67,.42-.93,.22-.23,.49-.39,.81-.45,.53-.1,1,.03,1.4,.41,.03,.03,.07,.07,.1,.1,.03,.03,.05,.07,.09,.11,1.04-.41,2.08-.41,3.11,0,.06-.07,.12-.13,.18-.19,.26-.26,.58-.41,.95-.44,.87-.07,1.55,.51,1.68,1.28,.06,.36,0,.7-.15,1.02-.13,.27-.31,.5-.56,.68-.07,.05-.15,.09-.23,.14,.05,.12,.09,.24,.14,.36,.16,.42,.3,.86,.38,1.3,.06,.32,.06,.64,0,.95-.07,.41-.21,.8-.43,1.15-.02,.03-.02,.06,0,.09,.07,.12,.14,.24,.17,.38,0,.04,.04,.05,.07,.06,.12,.05,.24,.1,.35,.16,.46,.23,.87,.52,1.23,.88,.41,.41,.74,.87,1,1.38,.3,.57,.54,1.17,.76,1.78,.17,.48,.32,.96,.44,1.45,.11,.45,.2,.9,.24,1.35,.01,.15,.03,.29,.03,.44,0,.26,.06,.51,.19,.74,.08,.13,.11,.26,.11,.41,0,.13,0,.25-.03,.38-.06,.28-.23,.47-.49,.6-.23,.11-.49,.17-.74,.19-.21,.02-.41,.03-.62,.03-.28,0-.55-.02-.82-.1-.01,0-.03,0-.05,0,0,.04,0,.07,0,.1,.03,.2,.02,.4,0,.61-.02,.32-.07,.63-.15,.94-.17,.68-.35,1.36-.52,2.04-.09,.35-.16,.7-.2,1.05-.01,.11-.02,.21-.03,.32,0,.06,0,.12-.01,.2h.18s0,.07,0,.1c0,.49,0,.98,0,1.47,0,.04,0,.09,.03,.13,.13,.27,.21,.56,.25,.85,.03,.21,.05,.42,.05,.63,0,.02,0,.05,0,.07-.06,.02-4.72,.02-4.88,0,0-.04,0-.08,0-.13,.02-.3,.05-.6,.13-.89v-.02c.07-.14,.07-.29,.07-.44,0-.56,0-1.12,0-1.69v-.11Z"/><path class="g" d="M110.88,26.51h.2c.03-.11-.11-1.37-.19-1.77h-.57c-.08,.58-.16,1.17-.2,1.77h.22s0,.07,0,.1c0,.64,0,1.27,0,1.91,0,.03,0,.05,.01,.08,.08,.23,.13,.47,.16,.72,.01,.15,.02,.3,.03,.45-.07,.02-4.71,.03-4.88,0,0-.09,0-.18,0-.27,0-.14,.02-.28,.04-.41,.04-.3,.12-.6,.26-.88,.02-.04,.03-.08,.03-.13,0-.49,0-.98,0-1.47v-.1h.18c0-.1,0-.19-.01-.28-.03-.41-.11-.81-.21-1.21-.17-.68-.35-1.36-.52-2.05-.08-.32-.14-.63-.16-.96-.02-.2-.02-.4,0-.6,0-.06,.01-.11,.02-.18-.05,.01-.09,.02-.13,.03-.18,.04-.37,.06-.55,.07-.16,0-.32,0-.48,0-.32-.02-.64-.04-.95-.16-.17-.07-.33-.15-.45-.3-.13-.16-.18-.34-.19-.54,0-.12,0-.24,.01-.36,.01-.11,.06-.21,.12-.3,.12-.2,.16-.41,.17-.63,0-.39,.06-.78,.13-1.16,.13-.7,.32-1.37,.55-2.04,.18-.51,.38-1.02,.61-1.51,.2-.43,.43-.84,.72-1.21,.42-.56,.93-1.01,1.55-1.34,.15-.08,.31-.15,.47-.22,.06-.03,.09-.06,.11-.12,.04-.11,.09-.21,.14-.31,.03-.05,.03-.09,0-.15-.22-.37-.36-.77-.43-1.2-.03-.21-.04-.41-.03-.62,.02-.24,.07-.48,.14-.71,.11-.4,.25-.78,.41-1.16l.02-.04s-.03-.02-.05-.03c-.36-.18-.6-.46-.76-.83-.12-.27-.17-.56-.15-.86,.04-.36,.17-.67,.42-.93,.22-.23,.49-.39,.81-.45,.53-.1,1,.03,1.4,.41,.03,.03,.07,.07,.1,.1,.03,.03,.05,.07,.09,.11,1.04-.41,2.08-.41,3.11,0,.06-.07,.12-.13,.18-.19,.26-.26,.58-.41,.95-.44,.87-.07,1.55,.51,1.68,1.28,.06,.36,0,.7-.15,1.02-.13,.27-.31,.5-.56,.68-.07,.05-.15,.09-.23,.14,.05,.12,.09,.24,.14,.36,.16,.42,.3,.86,.38,1.3,.06,.32,.06,.64,0,.95-.07,.41-.21,.8-.43,1.15-.02,.03-.02,.06,0,.09,.07,.12,.14,.24,.17,.38,0,.04,.04,.05,.07,.06,.12,.05,.24,.1,.35,.16,.46,.23,.87,.52,1.23,.88,.41,.41,.74,.87,1,1.38,.3,.57,.54,1.17,.76,1.78,.17,.48,.32,.96,.44,1.45,.11,.45,.2,.9,.24,1.35,.01,.15,.03,.29,.03,.44,0,.26,.06,.51,.19,.74,.08,.13,.11,.26,.11,.41,0,.13,0,.25-.03,.38-.06,.28-.23,.47-.49,.6-.23,.11-.49,.17-.74,.19-.21,.02-.41,.03-.62,.03-.28,0-.55-.02-.82-.1-.01,0-.03,0-.05,0,0,.04,0,.07,0,.1,.03,.2,.02,.4,0,.61-.02,.32-.07,.63-.15,.94-.17,.68-.35,1.36-.52,2.04-.09,.35-.16,.7-.2,1.05-.01,.11-.02,.21-.03,.32,0,.06,0,.12-.01,.2h.18s0,.07,0,.1c0,.49,0,.98,0,1.47,0,.04,0,.09,.03,.13,.13,.27,.21,.56,.25,.85,.03,.21,.05,.42,.05,.63,0,.02,0,.05,0,.07-.06,.02-4.72,.02-4.88,0,0-.04,0-.08,0-.13,.02-.3,.05-.6,.13-.89v-.02c.07-.14,.07-.29,.07-.44,0-.56,0-1.12,0-1.69v-.11Z"/><path class="e" d="M133.33,26.51h.2c.03-.11-.11-1.37-.19-1.77h-.57c-.08,.58-.16,1.17-.2,1.77h.22s0,.07,0,.1c0,.64,0,1.27,0,1.91,0,.03,0,.05,.01,.08,.08,.23,.13,.47,.16,.72,.01,.15,.02,.3,.03,.45-.07,.02-4.71,.03-4.88,0,0-.09,0-.18,0-.27,0-.14,.02-.28,.04-.41,.04-.3,.12-.6,.26-.88,.02-.04,.03-.08,.03-.13,0-.49,0-.98,0-1.47v-.1h.18c0-.1,0-.19-.01-.28-.03-.41-.11-.81-.21-1.21-.17-.68-.35-1.36-.52-2.05-.08-.32-.14-.63-.16-.96-.02-.2-.02-.4,0-.6,0-.06,.01-.11,.02-.18-.05,.01-.09,.02-.13,.03-.18,.04-.37,.06-.55,.07-.16,0-.32,0-.48,0-.32-.02-.64-.04-.95-.16-.17-.07-.33-.15-.45-.3-.13-.16-.18-.34-.19-.54,0-.12,0-.24,.01-.36,.01-.11,.06-.21,.12-.3,.12-.2,.16-.41,.17-.63,0-.39,.06-.78,.13-1.16,.13-.7,.32-1.37,.55-2.04,.18-.51,.38-1.02,.61-1.51,.2-.43,.43-.84,.72-1.21,.42-.56,.93-1.01,1.55-1.34,.15-.08,.31-.15,.47-.22,.06-.03,.09-.06,.11-.12,.04-.11,.09-.21,.14-.31,.03-.05,.03-.09,0-.15-.22-.37-.36-.77-.43-1.2-.03-.21-.04-.41-.03-.62,.02-.24,.07-.48,.14-.71,.11-.4,.25-.78,.41-1.16l.02-.04s-.03-.02-.05-.03c-.36-.18-.6-.46-.76-.83-.12-.27-.17-.56-.15-.86,.04-.36,.17-.67,.42-.93,.22-.23,.49-.39,.81-.45,.53-.1,1,.03,1.4,.41,.03,.03,.07,.07,.1,.1,.03,.03,.05,.07,.09,.11,1.04-.41,2.08-.41,3.11,0,.06-.07,.12-.13,.18-.19,.26-.26,.58-.41,.95-.44,.87-.07,1.55,.51,1.68,1.28,.06,.36,0,.7-.15,1.02-.13,.27-.31,.5-.56,.68-.07,.05-.15,.09-.23,.14,.05,.12,.09,.24,.14,.36,.16,.42,.3,.86,.38,1.3,.06,.32,.06,.64,0,.95-.07,.41-.21,.8-.43,1.15-.02,.03-.02,.06,0,.09,.07,.12,.14,.24,.17,.38,0,.04,.04,.05,.07,.06,.12,.05,.24,.1,.35,.16,.46,.23,.87,.52,1.23,.88,.41,.41,.74,.87,1,1.38,.3,.57,.54,1.17,.76,1.78,.17,.48,.32,.96,.44,1.45,.11,.45,.2,.9,.24,1.35,.01,.15,.03,.29,.03,.44,0,.26,.06,.51,.19,.74,.08,.13,.11,.26,.11,.41,0,.13,0,.25-.03,.38-.06,.28-.23,.47-.49,.6-.23,.11-.49,.17-.74,.19-.21,.02-.41,.03-.62,.03-.28,0-.55-.02-.82-.1-.01,0-.03,0-.05,0,0,.04,0,.07,0,.1,.03,.2,.02,.4,0,.61-.02,.32-.07,.63-.15,.94-.17,.68-.35,1.36-.52,2.04-.09,.35-.16,.7-.2,1.05-.01,.11-.02,.21-.03,.32,0,.06,0,.12-.01,.2h.18s0,.07,0,.1c0,.49,0,.98,0,1.47,0,.04,0,.09,.03,.13,.13,.27,.21,.56,.25,.85,.03,.21,.05,.42,.05,.63,0,.02,0,.05,0,.07-.06,.02-4.72,.02-4.88,0,0-.04,0-.08,0-.13,.02-.3,.05-.6,.13-.89v-.02c.07-.14,.07-.29,.07-.44,0-.56,0-1.12,0-1.69v-.11Z"/><path class="c" d="M155.47,26.51h.2c.03-.11-.11-1.37-.19-1.77h-.57c-.08,.58-.16,1.17-.2,1.77h.22s0,.07,0,.1c0,.64,0,1.27,0,1.91,0,.03,0,.05,.01,.08,.08,.23,.13,.47,.16,.72,.01,.15,.02,.3,.03,.45-.07,.02-4.71,.03-4.88,0,0-.09,0-.18,0-.27,0-.14,.02-.28,.04-.41,.04-.3,.12-.6,.26-.88,.02-.04,.03-.08,.03-.13,0-.49,0-.98,0-1.47v-.1h.18c0-.1,0-.19-.01-.28-.03-.41-.11-.81-.21-1.21-.17-.68-.35-1.36-.52-2.05-.08-.32-.14-.63-.16-.96-.02-.2-.02-.4,0-.6,0-.06,.01-.11,.02-.18-.05,.01-.09,.02-.13,.03-.18,.04-.37,.06-.55,.07-.16,0-.32,0-.48,0-.32-.02-.64-.04-.95-.16-.17-.07-.33-.15-.45-.3-.13-.16-.18-.34-.19-.54,0-.12,0-.24,.01-.36,.01-.11,.06-.21,.12-.3,.12-.2,.16-.41,.17-.63,0-.39,.06-.78,.13-1.16,.13-.7,.32-1.37,.55-2.04,.18-.51,.38-1.02,.61-1.51,.2-.43,.43-.84,.72-1.21,.42-.56,.93-1.01,1.55-1.34,.15-.08,.31-.15,.47-.22,.06-.03,.09-.06,.11-.12,.04-.11,.09-.21,.14-.31,.03-.05,.03-.09,0-.15-.22-.37-.36-.77-.43-1.2-.03-.21-.04-.41-.03-.62,.02-.24,.07-.48,.14-.71,.11-.4,.25-.78,.41-1.16l.02-.04s-.03-.02-.05-.03c-.36-.18-.6-.46-.76-.83-.12-.27-.17-.56-.15-.86,.04-.36,.17-.67,.42-.93,.22-.23,.49-.39,.81-.45,.53-.1,1,.03,1.4,.41,.03,.03,.07,.07,.1,.1,.03,.03,.05,.07,.09,.11,1.04-.41,2.08-.41,3.11,0,.06-.07,.12-.13,.18-.19,.26-.26,.58-.41,.95-.44,.87-.07,1.55,.51,1.68,1.28,.06,.36,0,.7-.15,1.02-.13,.27-.31,.5-.56,.68-.07,.05-.15,.09-.23,.14,.05,.12,.09,.24,.14,.36,.16,.42,.3,.86,.38,1.3,.06,.32,.06,.64,0,.95-.07,.41-.21,.8-.43,1.15-.02,.03-.02,.06,0,.09,.07,.12,.14,.24,.17,.38,0,.04,.04,.05,.07,.06,.12,.05,.24,.1,.35,.16,.46,.23,.87,.52,1.23,.88,.41,.41,.74,.87,1,1.38,.3,.57,.54,1.17,.76,1.78,.17,.48,.32,.96,.44,1.45,.11,.45,.2,.9,.24,1.35,.01,.15,.03,.29,.03,.44,0,.26,.06,.51,.19,.74,.08,.13,.11,.26,.11,.41,0,.13,0,.25-.03,.38-.06,.28-.23,.47-.49,.6-.23,.11-.49,.17-.74,.19-.21,.02-.41,.03-.62,.03-.28,0-.55-.02-.82-.1-.01,0-.03,0-.05,0,0,.04,0,.07,0,.1,.03,.2,.02,.4,0,.61-.02,.32-.07,.63-.15,.94-.17,.68-.35,1.36-.52,2.04-.09,.35-.16,.7-.2,1.05-.01,.11-.02,.21-.03,.32,0,.06,0,.12-.01,.2h.18s0,.07,0,.1c0,.49,0,.98,0,1.47,0,.04,0,.09,.03,.13,.13,.27,.21,.56,.25,.85,.03,.21,.05,.42,.05,.63,0,.02,0,.05,0,.07-.06,.02-4.72,.02-4.88,0,0-.04,0-.08,0-.13,.02-.3,.05-.6,.13-.89v-.02c.07-.14,.07-.29,.07-.44,0-.56,0-1.12,0-1.69v-.11Z"/></svg>